<?xml version="1.0" standalone="no"?>
<!DOCTYPE svg PUBLIC "-//W3C//DTD SVG 1.1//EN" "http://www.w3.org/Graphics/SVG/1.1/DTD/svg11.dtd" >
<svg>
<metadata>
Created by FontForge 20090622 at Mon Jul 20 12:51:17 2020
 By deploy user
Typeface &#194;&#169; MouserFonts 2000. All Rights Reserved
</metadata>
<defs>
<font id="bouwsunc" horiz-adv-x="636" >
  <font-face 
    font-family="Bouwsma Uncial"
    font-weight="400"
    font-stretch="normal"
    units-per-em="1450"
    panose-1="2 0 0 0 0 0 0 0 0 0"
    ascent="1160"
    descent="-290"
    x-height="959"
    cap-height="968"
    bbox="-2.52055 -440 2051.56 1383.67"
    underline-thickness="48"
    underline-position="-140"
    unicode-range="U+0020-U+F002"
  />
<missing-glyph horiz-adv-x="500" 
d="M256 0v1280h1024v-1280h-1024zM288 32h960v1216h-960v-1216z" />
    <glyph glyph-name=".notdef" horiz-adv-x="500" 
d="M256 0v1280h1024v-1280h-1024zM288 32h960v1216h-960v-1216z" />
    <glyph glyph-name=".null" horiz-adv-x="0" 
 />
    <glyph glyph-name="nonmarkingreturn" horiz-adv-x="390" 
 />
    <glyph glyph-name="space" unicode=" " horiz-adv-x="390" 
 />
    <glyph glyph-name="exclam" unicode="!" horiz-adv-x="249" 
 />
    <glyph glyph-name="quotedbl" unicode="&#x22;" horiz-adv-x="237" 
 />
    <glyph glyph-name="numbersign" unicode="#" 
 />
    <glyph glyph-name="dollar" unicode="$" 
 />
    <glyph glyph-name="percent" unicode="%" 
 />
    <glyph glyph-name="ampersand" unicode="&#x26;" horiz-adv-x="486" 
 />
    <glyph glyph-name="quotesingle" unicode="'" horiz-adv-x="169" 
 />
    <glyph glyph-name="parenleft" unicode="(" horiz-adv-x="336" 
 />
    <glyph glyph-name="parenright" unicode=")" horiz-adv-x="384" 
 />
    <glyph glyph-name="asterisk" unicode="*" horiz-adv-x="492" 
 />
    <glyph glyph-name="plus" unicode="+" 
 />
    <glyph glyph-name="comma" unicode="," horiz-adv-x="237" 
 />
    <glyph glyph-name="hyphen" unicode="-" horiz-adv-x="471" 
 />
    <glyph glyph-name="hyphen" unicode="&#x2010;" horiz-adv-x="471" 
 />
    <glyph glyph-name="period" unicode="." horiz-adv-x="201" 
 />
    <glyph glyph-name="slash" unicode="/" horiz-adv-x="357" 
 />
    <glyph glyph-name="zero" unicode="0" 
 />
    <glyph glyph-name="one" unicode="1" 
 />
    <glyph glyph-name="two" unicode="2" 
 />
    <glyph glyph-name="three" unicode="3" 
 />
    <glyph glyph-name="four" unicode="4" 
 />
    <glyph glyph-name="five" unicode="5" 
 />
    <glyph glyph-name="six" unicode="6" 
 />
    <glyph glyph-name="seven" unicode="7" 
 />
    <glyph glyph-name="eight" unicode="8" 
 />
    <glyph glyph-name="nine" unicode="9" 
 />
    <glyph glyph-name="colon" unicode=":" horiz-adv-x="231" 
 />
    <glyph glyph-name="semicolon" unicode=";" horiz-adv-x="237" 
 />
    <glyph glyph-name="less" unicode="&#x3c;" 
 />
    <glyph glyph-name="equal" unicode="=" 
 />
    <glyph glyph-name="greater" unicode="&#x3e;" 
 />
    <glyph glyph-name="question" unicode="?" horiz-adv-x="567" 
 />
    <glyph glyph-name="at" unicode="@" horiz-adv-x="579" 
 />
    <glyph glyph-name="A" unicode="A" horiz-adv-x="1253" 
d="M490.5 976q-84.5 -33 -241.5 -76.5t-201 -71.5q-108 -168 24 -296q8 40 -3 115q103 241 271 229t190 -23.5t50.5 -78.5t8 -122.5t-86.5 -79.5l-216 -76t-174 -64l-44 -20q-124 -252 156 -372q304 -112 476 144l12 8l12 16l56 60l12 -24l100 -244h12q24 8 40 20l16 4
l72 20l28 -4q64 -20 120 -16q20 4 40 16l-8 12q-80 28 -128 84q-16 28 -32 44l-168 328l-196 468q-20 40 -56 36q-57 -3 -141.5 -36zM656 556q168 -400 -164 -420q-292 40 -212 292q20 24 36 32t112 48q140 52 180 80q32 -8 48 -32z" />
    <glyph glyph-name="B" unicode="B" horiz-adv-x="885" 
d="M388 1272q-24 -12 -52 -24t-64 -24t-130 -26t-142 -38q8 -68 12 -98t6 -140t6 -202t2 -194t-4 -194t-12 -144t2 -116l24 -32q240 -68 494 -28t306 272q32 280 -252 344q404 124 124 408q-54 38 -145 43t-178 2t-112 -48t-45 -69v68l4 12l4 116l20 20l76 28l32 4l64 20
q36 44 -16 52zM592 800q-44 -204 -284 -168q-32 -4 -56 -16l20 -20q364 20 328 -332q-16 -100 -106 -144t-198 0q-36 12 -64 36l-4 28q4 360 0 656q24 96 52 128t76 32q196 -12 236 -200z" />
    <glyph glyph-name="C" unicode="C" horiz-adv-x="959" 
d="M234.5 941.5q-185.5 -68.5 -226.5 -359.5q-60 -356 228 -492q244 -140 484 -76l44 32l52 60q12 20 24 28l80 104l-16 4q-212 -192 -384 -102t-222 158t-62 132t-13 99t28 246t217 171q224 -16 272 -220l16 -4q20 92 -16 172q0 24 14 42t18 54q-104 32 -284 40
q-68 -20 -253.5 -88.5z" />
    <glyph glyph-name="D" unicode="D" horiz-adv-x="1074" 
d="M424 1260h-92l-16 -4q-36 0 -64 -8h-40l-16 -4l-44 -4q-44 -12 -64 -16q-48 -8 -80 -20q-8 -12 -8 -20h28l44 12q52 8 88 20h12l28 4l44 4h96q28 -8 52 -4l28 -4l40 -20h16l8 4q20 -8 36 -4l24 4l8 -4h24q48 -8 84 -4l12 -4q32 0 60 -8h12l44 -8q8 0 28 -4
q68 -16 116 -16l96 -28q24 -4 40 -12l28 -8q12 0 40 -8l16 -4q48 -16 64 -16l80 -24l32 -20l36 -12q44 -16 72 -32l-16 -12l-16 -4l-140 -60l-12 -8l-80 -32l-16 -16q-44 -36 -68 -64q-52 -108 -52 -216q-48 -316 148 -480l36 -20l24 -8l28 -16q24 -4 40 -16q28 -4 48 -12
q32 -4 56 -16l68 -4q68 -12 124 4q48 4 108 16q80 4 140 32q292 252 148 660l-12 28l-44 80l-44 52l-28 16l-52 40q-24 12 -44 24l-64 32q-28 16 -52 24l-44 24l-16 4l-32 12l-8 4q-44 24 -76 28q-52 20 -76 24l-48 12l-36 12q-24 4 -28 8l-52 16l-8 4l-32 4l-32 8l-8 4
l-24 4q-28 12 -48 16h-12l-72 16l-44 4l-20 4l-56 8q-12 0 -16 4h-32l-40 8l-40 8h-24l-12 4h-44q-40 12 -72 12l-60 -4l-16 4l-44 -4q-20 4 -32 0l-28 4zM1800 552q72 -304 -112 -484q-48 -4 -80 8l-8 4l-28 4l-100 36l-56 32q-68 64 -104 120l-4 16l-20 40l-28 84v12
l-8 32q0 24 -4 60q0 60 -8 100l4 16v32l4 20l4 56q8 44 8 72l24 48l28 28l52 36l28 12l12 8q32 12 52 24q308 -104 344 -416z" />
    <glyph glyph-name="E" unicode="E" horiz-adv-x="997" 
d="M480 1032l-108 -36l-16 -8q-44 -24 -76 -32l-96 -52q-40 -28 -76 -36l-8 -8l-20 -20l-24 -28q0 -8 -8 -28l-4 -28q-4 -44 -12 -68l-8 -60q-88 -308 116 -504q28 -28 52 -40l28 -20l56 -20q20 -8 32 -16l24 -4l64 -20l248 4q24 4 68 8l28 4q52 0 88 12l12 12l16 24l4 12
l20 32q28 52 56 84l8 32q-480 -256 -704 152q-24 68 -16 128l20 4l52 -4h88q24 -8 44 -8l8 4q20 -8 36 -4h40l16 -4l44 -4l12 4l80 -4l16 8q28 16 44 32l16 8l40 32l8 4q36 20 56 36l-4 24l-132 -28h-168l-8 4l-164 8l-8 4l-60 4q-36 4 -60 12l-20 16v12l12 68l4 12l4 28
l28 92q40 56 92 80q280 28 424 -156q12 -8 20 -8q12 20 8 36l-12 24q-28 52 -36 96q48 56 36 84l-36 8l-16 4h-28l-12 4h-40l-12 4h-104q-40 -12 -72 -12z" />
    <glyph glyph-name="F" unicode="F" horiz-adv-x="675" 
d="M764 1100l-52 -4l-64 -12l-20 -8q-60 -16 -100 -36q-32 -8 -52 -20l-16 -4l-20 -4q-28 -12 -52 -16q-20 -4 -48 -16l-16 -4l-16 -4l-100 -28l-8 -4l-48 -44q-12 -32 -12 -60q0 -36 8 -64v-20q12 -28 12 -52v-16q8 -40 4 -68l4 -20l4 -76l4 -12l4 -80q-16 -16 -32 -24
q-112 -52 -144 -72l-4 -20h32q76 24 144 8l4 -16v-28q-4 -60 -4 -100q4 -48 0 -112q0 -64 -8 -100l-4 -44l-4 -24l-12 -44l-4 -16l-24 -68q-16 -44 -20 -76q48 20 72 52l44 64q60 68 84 124l68 60l4 16q4 76 0 104l4 44v144q12 8 28 4h40l12 -4l144 8q64 28 100 80
q20 12 32 24q-4 16 -16 8l-56 -12l-100 4l-20 4h-56q-64 -4 -112 8v68q-4 12 -4 32l4 20l-4 8v176q-4 24 -4 40l4 32l-4 28l4 96q12 20 24 32q244 104 436 -40q8 60 -44 92q8 52 56 72l4 16q-36 12 -68 8z" />
    <glyph glyph-name="G" unicode="G" horiz-adv-x="1109" 
d="M68 774l-16 -40l-12 -28l-24 -92q-72 -368 208 -540q332 -184 612 36h20v-24l-4 -16l-4 -28v-28q-4 -48 -4 -80q-12 -24 -16 -40q-56 -68 -140 -92q-4 -16 0 -28q24 -12 48 -4l16 12l32 20q24 32 56 52q16 20 34 32t30 16q108 60 136 84l4 20q-12 40 -16 68l4 152l4 44
l-4 12v72l4 12l4 96l36 40l-12 24q-24 4 -40 -4q-20 -20 -36 -28q-12 0 -16 -4l-100 -28h-80q-76 8 -124 4q-16 -16 -20 -32l12 -16h12l28 -8l12 4h24q32 0 52 4q36 -4 64 4q16 -24 24 -48q8 -128 -40 -228q-200 -108 -424 4l-8 8q-40 28 -64 56q-140 180 -96 380
q0 172 100 288q40 44 84 64q212 36 372 -72q32 -36 44 -76l16 -4l8 20l-4 32l-4 8l-20 72q44 36 44 72q-44 8 -72 8l-16 4h-28q-60 8 -100 4q-368 -28 -600 -240z" />
    <glyph glyph-name="H" unicode="H" horiz-adv-x="1087" 
d="M612 1206l-16 -4q-64 -8 -100 -20h-16q-28 -8 -48 -20l-44 -12q-28 -4 -60 -20q-52 -12 -112 -40q-24 -4 -40 -16l-16 -4l-92 -44l-40 -36q-16 -36 -20 -92l4 -12l-4 -12l16 -456l-4 -12q0 -60 -4 -84q8 -52 4 -84l-4 -20v-100l-4 -8q-12 -60 -12 -100l8 -12q40 8 68 20
l12 4l48 -4q28 -16 52 -20q32 -4 56 -12l12 4q24 -8 44 -8q8 -4 28 0l16 -4l100 -4l20 12l-12 24q-140 -4 -232 80q-8 32 -16 48l4 204q0 340 268 500q68 16 124 4q448 -244 104 -792q-20 -36 -16 -68q12 -4 32 -4t32 4h124q12 0 16 4h132q32 -8 60 -4l44 -16q24 -4 40 0
q12 20 -4 36h-24l-12 4l-32 4h-40q-16 4 -44 4q-40 8 -72 4q-24 20 -36 40q0 52 20 96q140 276 112 552l-40 92q-52 64 -112 96l-8 4q-52 28 -92 36q-360 24 -556 -272l4 32v52q0 32 4 52v28l-4 16l8 100q140 292 484 140q88 -72 68 -8q-76 52 -104 124l-20 8q-32 -8 -56 -4
z" />
    <glyph glyph-name="I" unicode="I" horiz-adv-x="523" 
d="M144 912l4 -12v-88l4 -8l4 -44v-72q0 -60 -4 -100v-52q-4 -44 0 -76q0 -12 4 -36q-12 -36 -8 -64v-76l-4 -44l-4 -68q-4 -60 -16 -100l4 -68h28l16 8l100 32l56 -8q108 -52 204 -24l-12 24q-24 0 -40 -4l-8 4q-68 32 -108 72l-20 52v16q-4 24 -8 60q0 24 -4 40v268
q0 28 4 48l-4 12v44l4 16l4 140l8 28q0 16 8 40l4 36l4 24q28 12 32 32l-20 4l-52 -4l-24 -4l-20 -4l-96 4q-32 0 -56 4h-12q-24 4 -44 0q-36 8 -64 4q-32 -48 136 -56z" />
    <glyph glyph-name="J" unicode="J" horiz-adv-x="412" 
d="M128 957q-40 0 -64 -20l8 -20q72 8 124 -32l4 -20q8 -32 8 -52v-40q12 -44 8 -80v-88l4 -16q-8 -24 -8 -44q-4 -32 -4 -56v-40q-4 -48 -4 -80v-128q-4 -36 0 -64l-4 -20v-48l-4 -16l-4 -56v-72q-12 -24 -12 -48q-48 -112 -160 -124l-20 -16q-4 -40 32 -32l12 4
q24 12 40 16l64 24q96 24 156 68l40 24q20 20 28 36l20 36l4 12l4 20l8 28l4 216l-4 12l-4 104l-4 24v80q-4 24 -4 40l-4 132q8 32 4 56l4 36l4 20q-4 24 0 68l12 156l-8 8h-24q-132 -40 -256 -8z" />
    <glyph glyph-name="K" unicode="K" horiz-adv-x="937" 
d="M500 1371l-44 -16h-12l-52 -24q-24 -4 -40 -16l-16 -4l-16 -4l-12 -8q-20 -4 -32 -12q-32 -8 -84 -28l-92 -36q-40 -28 -60 -60l-4 -8q-16 -56 -16 -100l16 -492l4 -44v-44l-4 -8l4 -12q-4 -48 -4 -80t-4 -56v-60q0 -40 -4 -68l-4 -44l-4 -32q-20 -60 -16 -112l12 -8
q12 0 16 4l28 8q40 -4 72 8l16 -8l12 4l20 -8h28l16 -4h24q32 -12 60 -8q36 -20 68 -20q48 -8 56 32q-36 12 -72 0l-16 12q-64 28 -104 68q-12 36 -16 64v124q0 32 -4 56q-12 88 0 152l44 -4l20 -20q32 -24 48 -40l44 -36l60 -68l4 -8q24 -20 40 -48q12 -8 16 -16l12 -12
l20 -28l16 -20q28 -28 40 -56l20 -24l20 -20q4 -8 20 -24l16 -20q32 -48 56 -72l32 4l28 8l20 4l80 28l48 -12q176 -96 340 -76l-12 20h-48l-24 -4l-24 4l-44 16l-12 8l-28 8q-28 16 -52 24l-8 8l-44 28l-12 12l-36 28q-12 8 -16 16l-20 20q-8 12 -16 16l-12 12l-24 20
l-112 108q-24 32 -44 48l-44 44q-28 24 -44 48l-64 68l-8 12l-44 52q-20 16 -32 32l8 12q16 8 36 28l24 20q20 20 32 28l52 52l12 8l4 8l96 108l4 8q52 60 64 84q-24 4 -64 8l-44 4l-28 4l-16 4l-28 8h-12l-60 16l-60 -4q-136 -40 -220 -128h-12l4 96q-12 172 48 304
q64 56 144 56q212 12 312 -148q12 0 16 4q-4 84 -120 156q80 88 -32 80q-64 -12 -100 -12zM500 879l44 -12q16 -24 24 -52q-8 -32 -20 -56l-12 -16q-28 -40 -56 -64l-16 -24l-68 -64l-8 -4l-40 -32l-12 -4q-32 0 -56 -4q-36 -8 -64 0q0 24 4 40v36l4 12q-4 40 4 68
q0 32 8 60q52 80 124 120z" />
    <glyph glyph-name="L" unicode="L" horiz-adv-x="737" 
d="M392 1151l-60 -20l-8 -4q-52 -8 -84 -20q-76 -4 -132 -40l-4 -12q-12 -20 -12 -48l-16 -100l-4 -84v-12q4 -24 0 -44l4 -36v-32l-4 -8l4 -136l4 -20l-4 -24l4 -16v-20q-4 -76 0 -124v-56l-4 -12v-24q-4 -32 -4 -52q-8 -36 -4 -64q-16 -64 -60 -104l-8 -36q52 8 84 40h28
l8 -4q28 -12 52 -12q68 -24 124 -20q208 -48 368 0q16 16 20 32q12 64 52 108q20 60 -20 72q-28 -32 -40 -56l-52 -28q-200 -36 -368 28l-4 20l-4 204q4 60 0 100v48l4 12q-4 44 0 72l16 236l4 24l8 28q4 60 16 100l32 76l28 20q188 28 128 76h-20q-52 -16 -72 -28z" />
    <glyph glyph-name="M" unicode="M" horiz-adv-x="1553" 
d="M4 397q20 -384 376 -380q76 -20 136 -8l-4 12l-44 24q-20 12 -36 16l-8 8q-48 20 -80 52l-12 20l-8 8l-52 76q-84 320 20 596q100 188 220 84q156 -104 144 -328l4 -24q0 -56 4 -76q-4 -48 0 -64v-104l4 -8l-4 -8q4 -40 -4 -72l4 -12l-4 -20l-4 -16l-4 -24q0 -40 -8 -68
q0 -36 -12 -60q0 -20 20 -24l44 4q96 -16 168 0l4 12l-8 136l-4 8l-8 160l-4 12l4 128l-4 8q8 32 4 60q8 32 4 56l4 12q8 24 8 44l4 12l12 80l16 40l8 12q8 32 24 52q52 76 128 72h12q60 -32 96 -64q16 -32 40 -48q184 -388 -40 -740l-16 -16q-52 -36 -80 -72l20 -4l68 24
q12 4 16 8l16 4l200 68q28 24 48 48l24 40l12 20q12 40 24 60q88 380 -112 632q-92 100 -208 132l-32 -4q-24 -12 -40 -16l-32 -12l-32 -12q-16 -4 -36 -16q-28 -16 -52 -20l-16 -12q-32 -16 -52 -36l-12 -4q-20 -16 -40 -24l-16 16l-92 56q-112 88 -232 92
q-508 -136 -488 -608z" />
    <glyph glyph-name="N" unicode="N" horiz-adv-x="1316" 
d="M8 976q80 4 140 -32q0 -12 4 -16q0 -12 4 -16l4 -16l12 -56q4 -8 8 -28q0 -56 12 -92l-4 -28v-100q-4 -44 0 -72l-4 -44l-4 -20v-68l-4 -16v-56l-4 -20v-16l-4 -24v-48q-8 -40 -8 -68q-8 -52 -8 -88q32 -8 60 0h16l40 -12h12q52 0 88 -16q72 4 128 -16l32 4l28 4
q0 12 -12 32q-96 0 -160 56l-16 40l-8 48l-4 336q8 32 4 80l4 32l4 64l4 8q24 68 64 112l12 8l24 24l16 8l68 44q304 64 388 -228q60 -332 -92 -600q-4 -36 -4 -64q12 -12 24 -14t16 2l44 4l20 8q40 -8 72 0l16 4q36 -8 68 0l20 -4q60 -4 84 0q52 -8 84 -8q12 72 -180 52
q-28 12 -44 36l-4 12l-4 100q4 8 8 28l4 24l8 48l4 36l20 80v16l8 24l20 112l4 28q12 128 8 164l-4 8q-12 76 -44 128l-8 8q-28 32 -52 48l-12 4l-64 32q-336 64 -584 -164q-4 8 0 28v28q0 40 8 68l-4 24l-12 24h-184q-32 0 -56 4h-36l-8 4h-76q-16 -20 -4 -36z" />
    <glyph glyph-name="O" unicode="O" horiz-adv-x="1138" 
d="M0 390q92 -452 568 -392q424 -12 516 296q112 676 -540 720q-564 -88 -544 -624zM524 970l32 -4l28 -8l8 -4q20 -12 32 -16l52 -36l16 -16l8 -4q28 -24 48 -48q12 -16 24 -24l20 -24q144 -352 12 -668q-40 -48 -92 -64q-404 -32 -484 388q-60 428 252 532z" />
    <glyph glyph-name="P" unicode="P" horiz-adv-x="1010" 
d="M616 976l-24 -4q-44 -4 -72 -12h-36q-72 -16 -128 -8h-28l-48 -8h-80l-16 4h-16l-100 16q-40 8 -68 -8q0 -44 100 -48l12 -44q12 -20 16 -32q0 -44 12 -72v-128l-4 -28q4 -44 -4 -76v-36l-4 -16l-4 -28q4 -44 -4 -72l-4 -48v-24q-4 -36 -4 -92q-4 -12 -8 -40v-56
q-8 -52 -12 -120l-4 -16l-4 -44v-12q0 -20 -4 -32q-4 -60 -16 -100q-68 -88 -8 -72l24 24q12 20 24 32q68 40 104 88q28 12 44 30t24 38q4 52 16 84l4 204l4 28v104l4 24l12 212l4 24l4 20v16l4 8l-4 12l4 48l4 20l4 28v40q0 60 8 100q376 76 448 -264q96 -400 -208 -596
q-128 -8 -224 52l-4 20h-16q-20 -20 -20 -40l8 -8q32 -16 48 -32q20 -28 44 -44h12q84 4 140 20q444 32 460 464q48 532 -404 504z" />
    <glyph glyph-name="Q" unicode="Q" horiz-adv-x="1064" 
d="M88 787q-104 -236 -80 -460q48 -220 236 -284q280 -120 540 104q8 -48 4 -82t0 -62q-12 -36 -8 -64l-4 -24l-8 -28q4 -44 -4 -72l8 -20l32 4l100 28h28q44 -16 80 -20q32 -16 60 -16l8 -4l56 -16l12 -8q20 -4 32 -12q28 0 48 -4q48 0 60 36q-20 16 -44 16q0 -20 -12 -32
q-144 28 -224 132l-12 36l-4 28l-4 24l-4 52q0 32 -8 80l4 404l4 8v24l4 32l4 28l4 216l4 12v32l20 120l-20 4l-56 -12h-124l-16 4h-16q-24 0 -40 4h-80l-12 4h-84q-288 -36 -484 -212zM508 935l124 -4q8 -4 18 -4t14 -4l100 -28q24 -16 36 -28v-64l4 -32v-84l4 -16
q-4 -8 -4 -28q0 -48 -4 -80l4 -16l-4 -16l4 -16q-4 -24 -4 -40v-60q-4 -44 -4 -72q-8 -256 -256 -232q-292 60 -320 348q-28 464 276 480z" />
    <glyph glyph-name="R" unicode="R" horiz-adv-x="1119" 
d="M684 972l-140 -4l-24 -4l-68 4q-24 0 -40 -4h-28l-8 4q-44 -4 -74 -2t-54 -6h-68q-80 -16 -148 4q-20 -4 -32 -16l8 -20q60 -4 96 -44l40 -104v-12l12 -64l-4 -16l4 -16l4 -28q-4 -60 0 -100v-120q-4 -12 -4 -24t-4 -36q0 -32 -4 -52q0 -32 -4 -56v-36l-4 -16l4 -8
l-4 -32l-4 -28q-24 -72 -4 -132h28q48 12 84 8h12q56 12 100 4l12 -8q56 0 96 -20l20 8v16l-8 8l-32 12q-52 8 -84 28l-4 24l-8 52v176q-4 44 8 76q52 8 88 4q8 -4 18 -12t14 -16l20 -20q20 -12 32 -28l44 -44l8 -12q28 -20 44 -40l8 -8l12 -16q12 -20 24 -28l36 -40
q36 -56 64 -88q20 -28 44 -44l12 -4h44l16 4l104 8q76 -8 136 12q0 12 -4 16q-48 0 -84 28l-20 16l-84 80l-16 12l-76 80q-32 24 -64 60l-4 8l-24 24q-20 12 -28 24q-40 48 -88 72q232 92 248 312q4 200 -184 228zM648 756q16 -124 -36 -224q-80 -104 -196 -84
q-84 -4 -64 108v64q-8 48 -4 80v116q4 56 -4 92q32 28 76 24q184 -12 228 -176z" />
    <glyph glyph-name="S" unicode="S" horiz-adv-x="834" 
d="M524 1032l-56 -8l-24 -8l-68 -8l-24 -4h-32l-12 -4q-40 -4 -68 -16l-88 -12q-264 -136 -72 -348l36 -20l44 -20q32 -12 52 -24l8 -4q184 -48 300 -152q108 -148 20 -284q-140 -104 -284 -16q-164 92 -172 260q-8 12 -20 16l-16 -24l-4 -24v-120q4 -32 -4 -60l8 -32
q0 -48 8 -80q128 -56 248 -36q116 -8 208 40h12q28 4 44 12q72 4 120 24q76 60 108 136q72 296 -320 408l-8 8l-16 4q-20 12 -32 16q-36 20 -64 28q-64 36 -104 88q-52 148 96 196q208 24 268 -152l16 -8q20 64 -8 112q20 56 20 100q-48 20 -96 20z" />
    <glyph glyph-name="T" unicode="T" horiz-adv-x="1085" 
d="M40 1028l-12 -56v-12q-12 -28 -12 -52l-8 -32l-4 -20q-4 -28 -4 -48l12 -16q20 20 28 40q24 4 40 4h36l12 4h36q48 12 88 4q72 12 132 -4l-20 -24l-16 -24q-224 -208 -140 -468q124 -292 452 -316q20 -8 36 -8l48 8l24 -4l20 8q104 4 184 44q44 52 60 104q52 64 60 132
q-20 0 -32 -12q-72 -132 -204 -140q-148 -28 -256 56q-260 180 -160 472q24 104 88 172l12 4h84q204 -36 368 52h12l80 28l32 12l28 12l12 16l-24 4l-224 -8l-28 4q-20 0 -32 4h-80l-28 4h-28l-20 4h-56q-40 8 -68 4q-32 8 -60 4l-140 4q-8 4 -18 4t-14 -4l-20 4h-68
q-64 12 -100 12l-32 8q-32 20 -60 28z" />
    <glyph glyph-name="U" unicode="U" horiz-adv-x="1255" 
d="M292 980l-92 -20q-24 4 -44 0l-144 -8v-20q84 4 104 -72l-4 -44l-4 -12l-16 -80q-288 -656 328 -724q236 16 348 212l4 -16l4 -44l4 -8q-8 -76 16 -136q32 -4 56 8q32 0 56 -8l12 4h24q44 4 70 0t42 0l28 -8l8 4l12 -4l80 -16q24 0 40 4q28 20 8 40q-192 -32 -252 144
l-8 40q-16 56 -20 92v48l-4 16l-8 124l4 16l-4 12v40l4 16l4 164l4 28v48l4 12v48l4 32l16 64q-28 4 -72 -8l-44 -4l-196 8q-24 -4 -36 -12q0 -20 8 -32q64 12 112 -12q4 -24 12 -40l8 -36l4 -100q-4 -32 -4 -56v-64q0 -76 -4 -124v-124q-4 -32 4 -60l-8 -24
q-28 -68 -76 -104q-276 -104 -432 124l-8 8l-48 152q4 280 132 500l-20 16z" />
    <glyph glyph-name="V" unicode="V" horiz-adv-x="1078" 
d="M704 973l8 -8q52 4 92 -8q36 -44 44 -88v-32l-8 -80l-12 -32q-12 -28 -16 -32q-4 -24 -16 -40l-4 -16q-12 -32 -24 -52l-4 -16l-28 -60q-12 -20 -16 -32l-48 -96q-8 -24 -20 -36l-4 -12l-52 -84l-8 8l-44 72l-8 24l-8 12l-8 20q-20 36 -28 60l-92 220q-12 20 -16 32
l-8 24q-16 24 -20 48l-12 36l-8 24l-4 32q-4 8 -8 28t-8 36q-4 52 -20 84l-20 4h-84l-44 -4h-144l-4 -20q80 -32 104 -108l48 -124q0 -12 4 -16l12 -44l68 -172q12 -32 24 -52l40 -116l12 -28l12 -20q4 -24 16 -40q0 -8 12 -28l44 -104l8 -12l12 -20l24 -36q28 -60 64 -96
l20 4q0 28 -8 52l20 28l20 44q12 20 24 32q8 24 32 52l28 48l8 8l8 20l16 16l28 40l96 168l12 16l68 112q12 32 24 52l40 80l12 16q12 24 16 40l16 24l4 12l56 120q8 28 0 48l-4 4l-56 -4l-24 -4l-64 -8l-16 4l-36 8h-28l-88 16q-28 -20 -24 -48z" />
    <glyph glyph-name="W" unicode="W" horiz-adv-x="1614" 
d="M292 1020l-16 -4l-16 -4h-16l-80 -24l-20 -12l-84 -24l-8 -4l-40 -36q-12 -32 -12 -60q12 -116 120 -136l12 16q-92 84 -32 172q16 24 36 36q140 28 260 -12q56 -4 92 -24l-72 -60l-16 -12l-16 -12l-20 -16q-68 -44 -100 -96q8 -52 28 -88l84 -188q24 -40 36 -72l80 -148
l4 -12l12 -20l4 -12l20 -28l4 -8l12 -32l12 -28l-4 -52l20 -12l12 16l40 60l4 12l32 52l4 12l44 76l4 12q12 20 16 32l44 132l24 40q0 12 4 16l24 64q20 40 28 68v40q16 32 20 56l84 -188l4 -12q20 -32 40 -84l28 -52q8 -32 20 -52l28 -56l4 -16l28 -56l4 -12l24 -40l12 -16
q4 -16 16 -36q12 -24 16 -40l4 -8q16 -20 36 -28l16 12q4 40 20 72l40 88q12 20 16 32l12 28l44 84q4 12 8 16l8 16q20 28 24 56l24 44q8 44 28 76l16 48l12 28l12 44l44 136l4 8q16 36 20 64q20 96 20 128q-48 4 -80 -20h-72q-92 20 -164 8q16 -56 80 -56q16 -32 40 -48
l4 -20q16 -36 20 -68l-4 -12q-4 -48 -4 -80q-4 -8 -8 -24q0 -16 -8 -40q-8 -44 -20 -76v-16l-16 -44q-4 -44 -20 -76l-44 -124l-32 56l-20 36l-8 20q-8 8 -16 28q-16 24 -24 48l-32 52q-20 52 -44 84l-4 12l-12 24q-36 56 -48 100l-8 12q0 8 -12 28l-28 76l-4 28
q-12 72 -32 116q-60 0 -100 -20l-4 -16v-28q0 -60 -4 -100l-4 -24l-16 -68q0 -12 -4 -16q0 -12 -4 -16q0 -12 -4 -16l-4 -12l-4 -28l-84 -256q-20 -52 -40 -84l-4 8l-20 24l-16 20l-48 92q-228 304 24 504l-4 24q-32 12 -56 14t-40 6l-52 4q-32 0 -80 4l-12 4h-84zM576 972
q-76 -68 -36 4z" />
    <glyph glyph-name="X" unicode="X" horiz-adv-x="1052" 
d="M140 952q-36 0 -64 -12q28 -40 88 -36l16 -20l24 -20q16 -24 36 -40q20 -28 24 -40l52 -80l20 -24l4 -8l16 -20q16 -24 24 -44q44 -56 60 -112l-12 -20l-76 -76q-12 -8 -16 -16l-16 -20l-8 -4l-80 -84l-12 -8l-4 -8l-44 -32l-16 -12l-48 -48q-20 -12 -28 -24l-40 -36
q-32 -36 -40 -76q16 -20 32 -24h24l16 4l20 4l64 8h24q36 12 68 12l88 8l36 -12q32 0 52 16q-12 20 -24 28h-32l-12 4q-28 -8 -48 -8q-32 -8 -60 -4l-16 16l8 32l40 60q20 52 60 92l8 12l16 20l64 68q20 36 48 60l12 -12l64 -108l12 -24l108 -192q12 -32 24 -48l36 -8
q132 68 308 -40h24q56 -12 100 -8q36 8 44 40q-52 12 -96 -8q-12 4 -32 8l-40 28l-24 8l-24 16l-8 8l-36 28l-80 84q-20 36 -44 60l-40 52l-4 8l-32 40l-16 28l-12 16q-12 20 -32 44q-12 24 -24 40l-16 28l-12 12q-12 24 -24 40l28 36l8 12q12 20 32 40q16 28 28 40
q24 20 36 36l52 56l20 16l40 40q8 12 32 32l48 44q52 -8 76 12l-8 24l-24 4l-24 4h-40l-8 4h-32q-72 8 -120 0l-12 -16l-48 -84q-16 -20 -20 -32l-12 -16l-28 -44l-40 -60l-20 -24l-16 -24q-20 24 -32 48l-20 56l-8 12l-20 48q-8 20 -16 32l-12 28q-20 36 -28 62t-28 38
q-124 -64 -256 -40z" />
    <glyph glyph-name="Y" unicode="Y" horiz-adv-x="1011" 
d="M873 960q-24 4 -40 -12q4 -24 60 -40q12 -32 32 -72l8 -12q12 -20 16 -44q8 -20 16 -32l32 -96v-12l8 -12l40 -104q4 -12 8 -16q28 -68 32 -96l28 -68l4 -16l40 -112l4 -16l12 -32v-12l12 -28l8 -44l28 -68l24 12q24 148 136 88q-252 -320 -600 -432q-28 -16 -76 -28
l-12 -8q-44 -8 -72 -20q-12 0 -16 -4h-24q-48 -12 -80 -12q-288 -52 -480 136q-24 -8 -20 -32l20 -20q24 -32 44 -48l32 -12q20 -12 36 -16l52 -28l84 -24h24l32 -4h40l12 -4l16 4q60 0 100 8h92l12 8q32 4 56 12h12l24 8h12l52 20l12 8q32 4 56 20q28 4 48 16l40 16
q60 16 100 40q64 -4 112 16l8 8q48 32 76 68q24 16 36 36l8 8l12 20l8 8l40 52l60 108q16 20 24 24q16 32 36 52q8 20 28 48l12 16q24 44 48 68l52 88l4 12l56 100q4 12 8 16l8 16q0 8 12 28l8 24q12 32 24 52l80 224l4 16q20 72 24 120l-12 4l-24 -4l-156 -8l-16 4l-28 4
h-24q-24 8 -50 6t-42 -18l8 -28q72 0 120 -32l36 -92v-80l-4 -12l-4 -24l-4 -28l-4 -24l-16 -52q0 -12 -12 -40l-52 -152q-12 -28 -16 -32l-76 -164l-8 4l-24 20l-36 60q-8 20 -20 32q-4 12 -8 16l-8 20q0 8 -8 24l-12 36q-4 8 -4 28l-12 32q-12 28 -16 48l-12 24l-16 48
l-4 16q-24 56 -28 80l-12 28l-32 100l-4 16l-36 156q-8 24 -28 20q-116 -40 -220 -24z" />
    <glyph glyph-name="Z" unicode="Z" horiz-adv-x="1247" 
d="M152 927q-8 -44 -4 -72l-4 -16q-16 -52 -16 -76l-8 -24l12 -16q36 12 40 48l168 8q24 4 56 8h92q60 4 100 0l8 -8l-8 -8l-16 -24l-4 -8l-20 -28l-32 -44l-12 -16l-32 -48q-52 -60 -76 -108l-12 -16l-12 -16l-16 -16l-8 -16l-16 -16l-16 -24q-40 -40 -60 -76l-128 -156
l-12 -12q-20 -28 -36 -44l-8 -8l-24 -20q-20 -28 -44 -44l-4 -24q24 -4 40 4l40 -16q32 0 92 -12h56l12 -4q48 -8 80 -8q16 -4 52 -8h64q32 -8 60 -4q32 -8 56 -8h12l36 -8q32 0 54 2t38 -2l76 4q12 4 32 0l32 4h28l16 4l32 4q24 8 44 8l20 8q56 8 92 28l24 12q16 16 28 44
q16 24 28 64l24 88q96 160 -8 280l-4 -12v-28q16 -92 -8 -164l-16 -24l-12 -8l-32 -28l-52 -40l-16 -4l-40 -24q-24 -8 -44 -16q-24 -12 -44 -16l-64 -24q-24 -4 -44 -8l-32 -4q-24 0 -28 -4l-28 -4l-76 -4l-24 -4l-20 4l-16 -4l-20 4h-16l-32 4q-24 0 -40 4h-36l-28 8
l-44 4l4 28l20 24l20 32l8 8l108 184l16 16l20 28q36 44 52 76l32 48l12 24q20 28 32 52l12 12l4 8l16 20l20 28q16 28 44 60l16 28q16 20 24 40l4 8q60 52 84 116q-24 8 -44 4h-12q-64 -20 -108 -24h-52l-32 -4h-80l-12 -4h-84q-32 0 -56 4h-72l-20 4l-32 4l-28 4
q-24 12 -44 16l-40 16q-16 -16 -24 -32z" />
    <glyph glyph-name="bracketleft" unicode="[" horiz-adv-x="282" 
 />
    <glyph glyph-name="backslash" unicode="\" horiz-adv-x="318" 
 />
    <glyph glyph-name="bracketright" unicode="]" horiz-adv-x="312" 
 />
    <glyph glyph-name="asciicircum" unicode="^" horiz-adv-x="330" 
 />
    <glyph glyph-name="underscore" unicode="_" horiz-adv-x="490" 
 />
    <glyph glyph-name="grave" unicode="`" horiz-adv-x="357" 
 />
    <glyph glyph-name="a" unicode="a" horiz-adv-x="1258" 
d="M490.5 976q-84.5 -33 -241.5 -76.5t-201 -71.5q-108 -168 24 -296q8 40 -3 115q103 241 271 229t190 -23.5t50.5 -78.5t8 -122.5t-86.5 -79.5l-216 -76t-174 -64l-44 -20q-124 -252 156 -372q304 -112 476 144l12 8l12 16l56 60l12 -24l100 -244h12q24 8 40 20l16 4
l72 20l28 -4q64 -20 120 -16q20 4 40 16l-8 12q-80 28 -128 84q-16 28 -32 44l-168 328l-196 468q-20 40 -56 36q-57 -3 -141.5 -36zM656 556q168 -400 -164 -420q-292 40 -212 292q20 24 36 32t112 48q140 52 180 80q32 -8 48 -32z" />
    <glyph glyph-name="b" unicode="b" horiz-adv-x="885" 
d="M388 1272q-24 -12 -52 -24t-64 -24t-130 -26t-142 -38q8 -68 12 -98t6 -140t6 -202t2 -194t-4 -194t-12 -144t2 -116l24 -32q240 -68 494 -28t306 272q32 280 -252 344q404 124 124 408q-54 38 -145 43t-178 2t-112 -48t-45 -69v68l4 12l4 116l20 20l76 28l32 4l64 20
q36 44 -16 52zM592 800q-44 -204 -284 -168q-32 -4 -56 -16l20 -20q364 20 328 -332q-16 -100 -106 -144t-198 0q-36 12 -64 36l-4 28q4 360 0 656q24 96 52 128t76 32q196 -12 236 -200z" />
    <glyph glyph-name="c" unicode="c" horiz-adv-x="948" 
d="M234.5 941.5q-185.5 -68.5 -226.5 -359.5q-60 -356 228 -492q244 -140 484 -76l44 32l52 60q12 20 24 28l80 104l-16 4q-212 -192 -384 -102t-222 158t-62 132t-13 99t28 246t217 171q224 -16 272 -220l16 -4q20 92 -16 172q0 24 14 42t18 54q-104 32 -284 40
q-68 -20 -253.5 -88.5z" />
    <glyph glyph-name="d" unicode="d" horiz-adv-x="1086" 
d="M424 1260h-92l-16 -4q-36 0 -64 -8h-40l-16 -4l-44 -4q-44 -12 -64 -16q-48 -8 -80 -20q-8 -12 -8 -20h28l44 12q52 8 88 20h12l28 4l44 4h96q28 -8 52 -4l28 -4l40 -20h16l8 4q20 -8 36 -4l24 4l8 -4h24q48 -8 84 -4l12 -4q32 0 60 -8h12l44 -8q8 0 28 -4
q68 -16 116 -16l96 -28q24 -4 40 -12l28 -8q12 0 40 -8l16 -4q48 -16 64 -16l80 -24l32 -20l36 -12q44 -16 72 -32l-16 -12l-16 -4l-140 -60l-12 -8l-80 -32l-16 -16q-44 -36 -68 -64q-52 -108 -52 -216q-48 -316 148 -480l36 -20l24 -8l28 -16q24 -4 40 -16q28 -4 48 -12
q32 -4 56 -16l68 -4q68 -12 124 4q48 4 108 16q80 4 140 32q292 252 148 660l-12 28l-44 80l-44 52l-28 16l-52 40q-24 12 -44 24l-64 32q-28 16 -52 24l-44 24l-16 4l-32 12l-8 4q-44 24 -76 28q-52 20 -76 24l-48 12l-36 12q-24 4 -28 8l-52 16l-8 4l-32 4l-32 8l-8 4
l-24 4q-28 12 -48 16h-12l-72 16l-44 4l-20 4l-56 8q-12 0 -16 4h-32l-40 8l-40 8h-24l-12 4h-44q-40 12 -72 12l-60 -4l-16 4l-44 -4q-20 4 -32 0l-28 4zM1800 552q72 -304 -112 -484q-48 -4 -80 8l-8 4l-28 4l-100 36l-56 32q-68 64 -104 120l-4 16l-20 40l-28 84v12
l-8 32q0 24 -4 60q0 60 -8 100l4 16v32l4 20l4 56q8 44 8 72l24 48l28 28l52 36l28 12l12 8q32 12 52 24q308 -104 344 -416z" />
    <glyph glyph-name="e" unicode="e" horiz-adv-x="1002" 
d="M480 1032l-108 -36l-16 -8q-44 -24 -76 -32l-96 -52q-40 -28 -76 -36l-8 -8l-20 -20l-24 -28q0 -8 -8 -28l-4 -28q-4 -44 -12 -68l-8 -60q-88 -308 116 -504q28 -28 52 -40l28 -20l56 -20q20 -8 32 -16l24 -4l64 -20l248 4q24 4 68 8l28 4q52 0 88 12l12 12l16 24l4 12
l20 32q28 52 56 84l8 32q-480 -256 -704 152q-24 68 -16 128l20 4l52 -4h88q24 -8 44 -8l8 4q20 -8 36 -4h40l16 -4l44 -4l12 4l80 -4l16 8q28 16 44 32l16 8l40 32l8 4q36 20 56 36l-4 24l-132 -28h-168l-8 4l-164 8l-8 4l-60 4q-36 4 -60 12l-20 16v12l12 68l4 12l4 28
l28 92q40 56 92 80q280 28 424 -156q12 -8 20 -8q12 20 8 36l-12 24q-28 52 -36 96q48 56 36 84l-36 8l-16 4h-28l-12 4h-40l-12 4h-104q-40 -12 -72 -12z" />
    <glyph glyph-name="f" unicode="f" horiz-adv-x="669" 
d="M764 1100l-52 -4l-64 -12l-20 -8q-60 -16 -100 -36q-32 -8 -52 -20l-16 -4l-20 -4q-28 -12 -52 -16q-20 -4 -48 -16l-16 -4l-16 -4l-100 -28l-8 -4l-48 -44q-12 -32 -12 -60q0 -36 8 -64v-20q12 -28 12 -52v-16q8 -40 4 -68l4 -20l4 -76l4 -12l4 -80q-16 -16 -32 -24
q-112 -52 -144 -72l-4 -20h32q76 24 144 8l4 -16v-28q-4 -60 -4 -100q4 -48 0 -112q0 -64 -8 -100l-4 -44l-4 -24l-12 -44l-4 -16l-24 -68q-16 -44 -20 -76q48 20 72 52l44 64q60 68 84 124l68 60l4 16q4 76 0 104l4 44v144q12 8 28 4h40l12 -4l144 8q64 28 100 80
q20 12 32 24q-4 16 -16 8l-56 -12l-100 4l-20 4h-56q-64 -4 -112 8v68q-4 12 -4 32l4 20l-4 8v176q-4 24 -4 40l4 32l-4 28l4 96q12 20 24 32q244 104 436 -40q8 60 -44 92q8 52 56 72l4 16q-36 12 -68 8z" />
    <glyph glyph-name="g" unicode="g" horiz-adv-x="1103" 
d="M68 774l-16 -40l-12 -28l-24 -92q-72 -368 208 -540q332 -184 612 36h20v-24l-4 -16l-4 -28v-28q-4 -48 -4 -80q-12 -24 -16 -40q-56 -68 -140 -92q-4 -16 0 -28q24 -12 48 -4l16 12l32 20q24 32 56 52q16 20 34 32t30 16q108 60 136 84l4 20q-12 40 -16 68l4 152l4 44
l-4 12v72l4 12l4 96l36 40l-12 24q-24 4 -40 -4q-20 -20 -36 -28q-12 0 -16 -4l-100 -28h-80q-76 8 -124 4q-16 -16 -20 -32l12 -16h12l28 -8l12 4h24q32 0 52 4q36 -4 64 4q16 -24 24 -48q8 -128 -40 -228q-200 -108 -424 4l-8 8q-40 28 -64 56q-140 180 -96 380
q0 172 100 288q40 44 84 64q212 36 372 -72q32 -36 44 -76l16 -4l8 20l-4 32l-4 8l-20 72q44 36 44 72q-44 8 -72 8l-16 4h-28q-60 8 -100 4q-368 -28 -600 -240z" />
    <glyph glyph-name="h" unicode="h" horiz-adv-x="1081" 
d="M612 1206l-16 -4q-64 -8 -100 -20h-16q-28 -8 -48 -20l-44 -12q-28 -4 -60 -20q-52 -12 -112 -40q-24 -4 -40 -16l-16 -4l-92 -44l-40 -36q-16 -36 -20 -92l4 -12l-4 -12l16 -456l-4 -12q0 -60 -4 -84q8 -52 4 -84l-4 -20v-100l-4 -8q-12 -60 -12 -100l8 -12q40 8 68 20
l12 4l48 -4q28 -16 52 -20q32 -4 56 -12l12 4q24 -8 44 -8q8 -4 28 0l16 -4l100 -4l20 12l-12 24q-140 -4 -232 80q-8 32 -16 48l4 204q0 340 268 500q68 16 124 4q448 -244 104 -792q-20 -36 -16 -68q12 -4 32 -4t32 4h124q12 0 16 4h132q32 -8 60 -4l44 -16q24 -4 40 0
q12 20 -4 36h-24l-12 4l-32 4h-40q-16 4 -44 4q-40 8 -72 4q-24 20 -36 40q0 52 20 96q140 276 112 552l-40 92q-52 64 -112 96l-8 4q-52 28 -92 36q-360 24 -556 -272l4 32v52q0 32 4 52v28l-4 16l8 100q140 292 484 140q88 -72 68 -8q-76 52 -104 124l-20 8q-32 -8 -56 -4
z" />
    <glyph glyph-name="i" unicode="i" horiz-adv-x="527" 
d="M144 912l4 -12v-88l4 -8l4 -44v-72q0 -60 -4 -100v-52q-4 -44 0 -76q0 -12 4 -36q-12 -36 -8 -64v-76l-4 -44l-4 -68q-4 -60 -16 -100l4 -68h28l16 8l100 32l56 -8q108 -52 204 -24l-12 24q-24 0 -40 -4l-8 4q-68 32 -108 72l-20 52v16q-4 24 -8 60q0 24 -4 40v268
q0 28 4 48l-4 12v44l4 16l4 140l8 28q0 16 8 40l4 36l4 24q28 12 32 32l-20 4l-52 -4l-24 -4l-20 -4l-96 4q-32 0 -56 4h-12q-24 4 -44 0q-36 8 -64 4q-32 -48 136 -56z" />
    <glyph glyph-name="j" unicode="j" horiz-adv-x="418" 
d="M128 957q-40 0 -64 -20l8 -20q72 8 124 -32l4 -20q8 -32 8 -52v-40q12 -44 8 -80v-88l4 -16q-8 -24 -8 -44q-4 -32 -4 -56v-40q-4 -48 -4 -80v-128q-4 -36 0 -64l-4 -20v-48l-4 -16l-4 -56v-72q-12 -24 -12 -48q-48 -112 -160 -124l-20 -16q-4 -40 32 -32l12 4
q24 12 40 16l64 24q96 24 156 68l40 24q20 20 28 36l20 36l4 12l4 20l8 28l4 216l-4 12l-4 104l-4 24v80q-4 24 -4 40l-4 132q8 32 4 56l4 36l4 20q-4 24 0 68l12 156l-8 8h-24q-132 -40 -256 -8z" />
    <glyph glyph-name="k" unicode="k" horiz-adv-x="972" 
d="M500 1371l-44 -16h-12l-52 -24q-24 -4 -40 -16l-16 -4l-16 -4l-12 -8q-20 -4 -32 -12q-32 -8 -84 -28l-92 -36q-40 -28 -60 -60l-4 -8q-16 -56 -16 -100l16 -492l4 -44v-44l-4 -8l4 -12q-4 -48 -4 -80t-4 -56v-60q0 -40 -4 -68l-4 -44l-4 -32q-20 -60 -16 -112l12 -8
q12 0 16 4l28 8q40 -4 72 8l16 -8l12 4l20 -8h28l16 -4h24q32 -12 60 -8q36 -20 68 -20q48 -8 56 32q-36 12 -72 0l-16 12q-64 28 -104 68q-12 36 -16 64v124q0 32 -4 56q-12 88 0 152l44 -4l20 -20q32 -24 48 -40l44 -36l60 -68l4 -8q24 -20 40 -48q12 -8 16 -16l12 -12
l20 -28l16 -20q28 -28 40 -56l20 -24l20 -20q4 -8 20 -24l16 -20q32 -48 56 -72l32 4l28 8l20 4l80 28l48 -12q176 -96 340 -76l-12 20h-48l-24 -4l-24 4l-44 16l-12 8l-28 8q-28 16 -52 24l-8 8l-44 28l-12 12l-36 28q-12 8 -16 16l-20 20q-8 12 -16 16l-12 12l-24 20
l-112 108q-24 32 -44 48l-44 44q-28 24 -44 48l-64 68l-8 12l-44 52q-20 16 -32 32l8 12q16 8 36 28l24 20q20 20 32 28l52 52l12 8l4 8l96 108l4 8q52 60 64 84q-24 4 -64 8l-44 4l-28 4l-16 4l-28 8h-12l-60 16l-60 -4q-136 -40 -220 -128h-12l4 96q-12 172 48 304
q64 56 144 56q212 12 312 -148q12 0 16 4q-4 84 -120 156q80 88 -32 80q-64 -12 -100 -12zM500 879l44 -12q16 -24 24 -52q-8 -32 -20 -56l-12 -16q-28 -40 -56 -64l-16 -24l-68 -64l-8 -4l-40 -32l-12 -4q-32 0 -56 -4q-36 -8 -64 0q0 24 4 40v36l4 12q-4 40 4 68
q0 32 8 60q52 80 124 120z" />
    <glyph glyph-name="l" unicode="l" horiz-adv-x="743" 
d="M392 1151l-60 -20l-8 -4q-52 -8 -84 -20q-76 -4 -132 -40l-4 -12q-12 -20 -12 -48l-16 -100l-4 -84v-12q4 -24 0 -44l4 -36v-32l-4 -8l4 -136l4 -20l-4 -24l4 -16v-20q-4 -76 0 -124v-56l-4 -12v-24q-4 -32 -4 -52q-8 -36 -4 -64q-16 -64 -60 -104l-8 -36q52 8 84 40h28
l8 -4q28 -12 52 -12q68 -24 124 -20q208 -48 368 0q16 16 20 32q12 64 52 108q20 60 -20 72q-28 -32 -40 -56l-52 -28q-200 -36 -368 28l-4 20l-4 204q4 60 0 100v48l4 12q-4 44 0 72l16 236l4 24l8 28q4 60 16 100l32 76l28 20q188 28 128 76h-20q-52 -16 -72 -28z" />
    <glyph glyph-name="m" unicode="m" horiz-adv-x="1548" 
d="M4 397q20 -384 376 -380q76 -20 136 -8l-4 12l-44 24q-20 12 -36 16l-8 8q-48 20 -80 52l-12 20l-8 8l-52 76q-84 320 20 596q100 188 220 84q156 -104 144 -328l4 -24q0 -56 4 -76q-4 -48 0 -64v-104l4 -8l-4 -8q4 -40 -4 -72l4 -12l-4 -20l-4 -16l-4 -24q0 -40 -8 -68
q0 -36 -12 -60q0 -20 20 -24l44 4q96 -16 168 0l4 12l-8 136l-4 8l-8 160l-4 12l4 128l-4 8q8 32 4 60q8 32 4 56l4 12q8 24 8 44l4 12l12 80l16 40l8 12q8 32 24 52q52 76 128 72h12q60 -32 96 -64q16 -32 40 -48q184 -388 -40 -740l-16 -16q-52 -36 -80 -72l20 -4l68 24
q12 4 16 8l16 4l200 68q28 24 48 48l24 40l12 20q12 40 24 60q88 380 -112 632q-92 100 -208 132l-32 -4q-24 -12 -40 -16l-32 -12l-32 -12q-16 -4 -36 -16q-28 -16 -52 -20l-16 -12q-32 -16 -52 -36l-12 -4q-20 -16 -40 -24l-16 16l-92 56q-112 88 -232 92
q-508 -136 -488 -608z" />
    <glyph glyph-name="n" unicode="n" horiz-adv-x="1301" 
d="M8 976q80 4 140 -32q0 -12 4 -16q0 -12 4 -16l4 -16l12 -56q4 -8 8 -28q0 -56 12 -92l-4 -28v-100q-4 -44 0 -72l-4 -44l-4 -20v-68l-4 -16v-56l-4 -20v-16l-4 -24v-48q-8 -40 -8 -68q-8 -52 -8 -88q32 -8 60 0h16l40 -12h12q52 0 88 -16q72 4 128 -16l32 4l28 4
q0 12 -12 32q-96 0 -160 56l-16 40l-8 48l-4 336q8 32 4 80l4 32l4 64l4 8q24 68 64 112l12 8l24 24l16 8l68 44q304 64 388 -228q60 -332 -92 -600q-4 -36 -4 -64q12 -12 24 -14t16 2l44 4l20 8q40 -8 72 0l16 4q36 -8 68 0l20 -4q60 -4 84 0q52 -8 84 -8q12 72 -180 52
q-28 12 -44 36l-4 12l-4 100q4 8 8 28l4 24l8 48l4 36l20 80v16l8 24l20 112l4 28q12 128 8 164l-4 8q-12 76 -44 128l-8 8q-28 32 -52 48l-12 4l-64 32q-336 64 -584 -164q-4 8 0 28v28q0 40 8 68l-4 24l-12 24h-184q-32 0 -56 4h-36l-8 4h-76q-16 -20 -4 -36z" />
    <glyph glyph-name="o" unicode="o" horiz-adv-x="1148" 
d="M0 390q92 -452 568 -392q424 -12 516 296q112 676 -540 720q-564 -88 -544 -624zM524 970l32 -4l28 -8l8 -4q20 -12 32 -16l52 -36l16 -16l8 -4q28 -24 48 -48q12 -16 24 -24l20 -24q144 -352 12 -668q-40 -48 -92 -64q-404 -32 -484 388q-60 428 252 532z" />
    <glyph glyph-name="p" unicode="p" horiz-adv-x="1016" 
d="M616 976l-24 -4q-44 -4 -72 -12h-36q-72 -16 -128 -8h-28l-48 -8h-80l-16 4h-16l-100 16q-40 8 -68 -8q0 -44 100 -48l12 -44q12 -20 16 -32q0 -44 12 -72v-128l-4 -28q4 -44 -4 -76v-36l-4 -16l-4 -28q4 -44 -4 -72l-4 -48v-24q-4 -36 -4 -92q-4 -12 -8 -40v-56
q-8 -52 -12 -120l-4 -16l-4 -44v-12q0 -20 -4 -32q-4 -60 -16 -100q-68 -88 -8 -72l24 24q12 20 24 32q68 40 104 88q28 12 44 30t24 38q4 52 16 84l4 204l4 28v104l4 24l12 212l4 24l4 20v16l4 8l-4 12l4 48l4 20l4 28v40q0 60 8 100q376 76 448 -264q96 -400 -208 -596
q-128 -8 -224 52l-4 20h-16q-20 -20 -20 -40l8 -8q32 -16 48 -32q20 -28 44 -44h12q84 4 140 20q444 32 460 464q48 532 -404 504z" />
    <glyph glyph-name="q" unicode="q" horiz-adv-x="1058" 
d="M88 787q-104 -236 -80 -460q48 -220 236 -284q280 -120 540 104q8 -48 4 -82t0 -62q-12 -36 -8 -64l-4 -24l-8 -28q4 -44 -4 -72l8 -20l32 4l100 28h28q44 -16 80 -20q32 -16 60 -16l8 -4l56 -16l12 -8q20 -4 32 -12q28 0 48 -4q48 0 60 36q-20 16 -44 16q0 -20 -12 -32
q-144 28 -224 132l-12 36l-4 28l-4 24l-4 52q0 32 -8 80l4 404l4 8v24l4 32l4 28l4 216l4 12v32l20 120l-20 4l-56 -12h-124l-16 4h-16q-24 0 -40 4h-80l-12 4h-84q-288 -36 -484 -212zM508 935l124 -4q8 -4 18 -4t14 -4l100 -28q24 -16 36 -28v-64l4 -32v-84l4 -16
q-4 -8 -4 -28q0 -48 -4 -80l4 -16l-4 -16l4 -16q-4 -24 -4 -40v-60q-4 -44 -4 -72q-8 -256 -256 -232q-292 60 -320 348q-28 464 276 480z" />
    <glyph glyph-name="r" unicode="r" horiz-adv-x="1115" 
d="M684 972l-140 -4l-24 -4l-68 4q-24 0 -40 -4h-28l-8 4q-44 -4 -74 -2t-54 -6h-68q-80 -16 -148 4q-20 -4 -32 -16l8 -20q60 -4 96 -44l40 -104v-12l12 -64l-4 -16l4 -16l4 -28q-4 -60 0 -100v-120q-4 -12 -4 -24t-4 -36q0 -32 -4 -52q0 -32 -4 -56v-36l-4 -16l4 -8
l-4 -32l-4 -28q-24 -72 -4 -132h28q48 12 84 8h12q56 12 100 4l12 -8q56 0 96 -20l20 8v16l-8 8l-32 12q-52 8 -84 28l-4 24l-8 52v176q-4 44 8 76q52 8 88 4q8 -4 18 -12t14 -16l20 -20q20 -12 32 -28l44 -44l8 -12q28 -20 44 -40l8 -8l12 -16q12 -20 24 -28l36 -40
q36 -56 64 -88q20 -28 44 -44l12 -4h44l16 4l104 8q76 -8 136 12q0 12 -4 16q-48 0 -84 28l-20 16l-84 80l-16 12l-76 80q-32 24 -64 60l-4 8l-24 24q-20 12 -28 24q-40 48 -88 72q232 92 248 312q4 200 -184 228zM648 756q16 -124 -36 -224q-80 -104 -196 -84
q-84 -4 -64 108v64q-8 48 -4 80v116q4 56 -4 92q32 28 76 24q184 -12 228 -176z" />
    <glyph glyph-name="s" unicode="s" horiz-adv-x="839" 
d="M524 1032l-56 -8l-24 -8l-68 -8l-24 -4h-32l-12 -4q-40 -4 -68 -16l-88 -12q-264 -136 -72 -348l36 -20l44 -20q32 -12 52 -24l8 -4q184 -48 300 -152q108 -148 20 -284q-140 -104 -284 -16q-164 92 -172 260q-8 12 -20 16l-16 -24l-4 -24v-120q4 -32 -4 -60l8 -32
q0 -48 8 -80q128 -56 248 -36q116 -8 208 40h12q28 4 44 12q72 4 120 24q76 60 108 136q72 296 -320 408l-8 8l-16 4q-20 12 -32 16q-36 20 -64 28q-64 36 -104 88q-52 148 96 196q208 24 268 -152l16 -8q20 64 -8 112q20 56 20 100q-48 20 -96 20z" />
    <glyph glyph-name="t" unicode="t" horiz-adv-x="1090" 
d="M40 1028l-12 -56v-12q-12 -28 -12 -52l-8 -32l-4 -20q-4 -28 -4 -48l12 -16q20 20 28 40q24 4 40 4h36l12 4h36q48 12 88 4q72 12 132 -4l-20 -24l-16 -24q-224 -208 -140 -468q124 -292 452 -316q20 -8 36 -8l48 8l24 -4l20 8q104 4 184 44q44 52 60 104q52 64 60 132
q-20 0 -32 -12q-72 -132 -204 -140q-148 -28 -256 56q-260 180 -160 472q24 104 88 172l12 4h84q204 -36 368 52h12l80 28l32 12l28 12l12 16l-24 4l-224 -8l-28 4q-20 0 -32 4h-80l-28 4h-28l-20 4h-56q-40 8 -68 4q-32 8 -60 4l-140 4q-8 4 -18 4t-14 -4l-20 4h-68
q-64 12 -100 12l-32 8q-32 20 -60 28z" />
    <glyph glyph-name="u" unicode="u" horiz-adv-x="1245" 
d="M292 980l-92 -20q-24 4 -44 0l-144 -8v-20q84 4 104 -72l-4 -44l-4 -12l-16 -80q-288 -656 328 -724q236 16 348 212l4 -16l4 -44l4 -8q-8 -76 16 -136q32 -4 56 8q32 0 56 -8l12 4h24q44 4 70 0t42 0l28 -8l8 4l12 -4l80 -16q24 0 40 4q28 20 8 40q-192 -32 -252 144
l-8 40q-16 56 -20 92v48l-4 16l-8 124l4 16l-4 12v40l4 16l4 164l4 28v48l4 12v48l4 32l16 64q-28 4 -72 -8l-44 -4l-196 8q-24 -4 -36 -12q0 -20 8 -32q64 12 112 -12q4 -24 12 -40l8 -36l4 -100q-4 -32 -4 -56v-64q0 -76 -4 -124v-124q-4 -32 4 -60l-8 -24
q-28 -68 -76 -104q-276 -104 -432 124l-8 8l-48 152q4 280 132 500l-20 16z" />
    <glyph glyph-name="v" unicode="v" horiz-adv-x="1073" 
d="M704 973l8 -8q52 4 92 -8q36 -44 44 -88v-32l-8 -80l-12 -32q-12 -28 -16 -32q-4 -24 -16 -40l-4 -16q-12 -32 -24 -52l-4 -16l-28 -60q-12 -20 -16 -32l-48 -96q-8 -24 -20 -36l-4 -12l-52 -84l-8 8l-44 72l-8 24l-8 12l-8 20q-20 36 -28 60l-92 220q-12 20 -16 32
l-8 24q-16 24 -20 48l-12 36l-8 24l-4 32q-4 8 -8 28t-8 36q-4 52 -20 84l-20 4h-84l-44 -4h-144l-4 -20q80 -32 104 -108l48 -124q0 -12 4 -16l12 -44l68 -172q12 -32 24 -52l40 -116l12 -28l12 -20q4 -24 16 -40q0 -8 12 -28l44 -104l8 -12l12 -20l24 -36q28 -60 64 -96
l20 4q0 28 -8 52l20 28l20 44q12 20 24 32q8 24 32 52l28 48l8 8l8 20l16 16l28 40l96 168l12 16l68 112q12 32 24 52l40 80l12 16q12 24 16 40l16 24l4 12l56 120q8 28 0 48l-4 4l-56 -4l-24 -4l-64 -8l-16 4l-36 8h-28l-88 16q-28 -20 -24 -48z" />
    <glyph glyph-name="w" unicode="w" horiz-adv-x="1499" 
d="M52 708l-28 -84l-8 -48q-16 -40 -16 -76q4 -24 4 -40q4 -180 116 -296q116 -136 280 -164q76 4 132 40q68 28 108 80l28 24q180 -164 396 -128q64 -8 112 4l8 8l24 12l36 16q168 160 212 360q96 536 -456 572q4 -12 12 -16l44 -24q56 -20 88 -56q124 -188 88 -392
q-4 -240 -124 -412l-8 -8l-60 -36q-116 48 -176 148l-12 32l-8 48l-4 24l-4 76q-8 52 0 92l4 120l4 12q0 40 8 68q0 32 8 60v52q0 20 4 32q0 36 8 64v12l4 20q4 48 0 80h-32q-36 -12 -64 -16q-96 16 -160 4q8 -24 36 -60q12 -44 24 -68l4 -32l-4 -16v-16l4 -44v-44l-4 -28
v-72q-4 -56 -12 -88v-44l-12 -64q12 -268 -172 -328q-64 28 -100 72q-288 384 -52 756l32 32l20 16q20 24 40 36t32 24q4 20 -12 24q-248 -116 -392 -320z" />
    <glyph glyph-name="x" unicode="x" horiz-adv-x="1061" 
d="M140 952q-36 0 -64 -12q28 -40 88 -36l16 -20l24 -20q16 -24 36 -40q20 -28 24 -40l52 -80l20 -24l4 -8l16 -20q16 -24 24 -44q44 -56 60 -112l-12 -20l-76 -76q-12 -8 -16 -16l-16 -20l-8 -4l-80 -84l-12 -8l-4 -8l-44 -32l-16 -12l-48 -48q-20 -12 -28 -24l-40 -36
q-32 -36 -40 -76q16 -20 32 -24h24l16 4l20 4l64 8h24q36 12 68 12l88 8l36 -12q32 0 52 16q-12 20 -24 28h-32l-12 4q-28 -8 -48 -8q-32 -8 -60 -4l-16 16l8 32l40 60q20 52 60 92l8 12l16 20l64 68q20 36 48 60l12 -12l64 -108l12 -24l108 -192q12 -32 24 -48l36 -8
q132 68 308 -40h24q56 -12 100 -8q36 8 44 40q-52 12 -96 -8q-12 4 -32 8l-40 28l-24 8l-24 16l-8 8l-36 28l-80 84q-20 36 -44 60l-40 52l-4 8l-32 40l-16 28l-12 16q-12 20 -32 44q-12 24 -24 40l-16 28l-12 12q-12 24 -24 40l28 36l8 12q12 20 32 40q16 28 28 40
q24 20 36 36l52 56l20 16l40 40q8 12 32 32l48 44q52 -8 76 12l-8 24l-24 4l-24 4h-40l-8 4h-32q-72 8 -120 0l-12 -16l-48 -84q-16 -20 -20 -32l-12 -16l-28 -44l-40 -60l-20 -24l-16 -24q-20 24 -32 48l-20 56l-8 12l-20 48q-8 20 -16 32l-12 28q-20 36 -28 62t-28 38
q-124 -64 -256 -40z" />
    <glyph glyph-name="y" unicode="y" horiz-adv-x="1004" 
d="M873 960q-24 4 -40 -12q4 -24 60 -40q12 -32 32 -72l8 -12q12 -20 16 -44q8 -20 16 -32l32 -96v-12l8 -12l40 -104q4 -12 8 -16q28 -68 32 -96l28 -68l4 -16l40 -112l4 -16l12 -32v-12l12 -28l8 -44l28 -68l24 12q24 148 136 88q-252 -320 -600 -432q-28 -16 -76 -28
l-12 -8q-44 -8 -72 -20q-12 0 -16 -4h-24q-48 -12 -80 -12q-288 -52 -480 136q-24 -8 -20 -32l20 -20q24 -32 44 -48l32 -12q20 -12 36 -16l52 -28l84 -24h24l32 -4h40l12 -4l16 4q60 0 100 8h92l12 8q32 4 56 12h12l24 8h12l52 20l12 8q32 4 56 20q28 4 48 16l40 16
q60 16 100 40q64 -4 112 16l8 8q48 32 76 68q24 16 36 36l8 8l12 20l8 8l40 52l60 108q16 20 24 24q16 32 36 52q8 20 28 48l12 16q24 44 48 68l52 88l4 12l56 100q4 12 8 16l8 16q0 8 12 28l8 24q12 32 24 52l80 224l4 16q20 72 24 120l-12 4l-24 -4l-156 -8l-16 4l-28 4
h-24q-24 8 -50 6t-42 -18l8 -28q72 0 120 -32l36 -92v-80l-4 -12l-4 -24l-4 -28l-4 -24l-16 -52q0 -12 -12 -40l-52 -152q-12 -28 -16 -32l-76 -164l-8 4l-24 20l-36 60q-8 20 -20 32q-4 12 -8 16l-8 20q0 8 -8 24l-12 36q-4 8 -4 28l-12 32q-12 28 -16 48l-12 24l-16 48
l-4 16q-24 56 -28 80l-12 28l-32 100l-4 16l-36 156q-8 24 -28 20q-116 -40 -220 -24z" />
    <glyph glyph-name="z" unicode="z" horiz-adv-x="1252" 
d="M152 927q-8 -44 -4 -72l-4 -16q-16 -52 -16 -76l-8 -24l12 -16q36 12 40 48l168 8q24 4 56 8h92q60 4 100 0l8 -8l-8 -8l-16 -24l-4 -8l-20 -28l-32 -44l-12 -16l-32 -48q-52 -60 -76 -108l-12 -16l-12 -16l-16 -16l-8 -16l-16 -16l-16 -24q-40 -40 -60 -76l-128 -156
l-12 -12q-20 -28 -36 -44l-8 -8l-24 -20q-20 -28 -44 -44l-4 -24q24 -4 40 4l40 -16q32 0 92 -12h56l12 -4q48 -8 80 -8q16 -4 52 -8h64q32 -8 60 -4q32 -8 56 -8h12l36 -8q32 0 54 2t38 -2l76 4q12 4 32 0l32 4h28l16 4l32 4q24 8 44 8l20 8q56 8 92 28l24 12q16 16 28 44
q16 24 28 64l24 88q96 160 -8 280l-4 -12v-28q16 -92 -8 -164l-16 -24l-12 -8l-32 -28l-52 -40l-16 -4l-40 -24q-24 -8 -44 -16q-24 -12 -44 -16l-64 -24q-24 -4 -44 -8l-32 -4q-24 0 -28 -4l-28 -4l-76 -4l-24 -4l-20 4l-16 -4l-20 4h-16l-32 4q-24 0 -40 4h-36l-28 8
l-44 4l4 28l20 24l20 32l8 8l108 184l16 16l20 28q36 44 52 76l32 48l12 24q20 28 32 52l12 12l4 8l16 20l20 28q16 28 44 60l16 28q16 20 24 40l4 8q60 52 84 116q-24 8 -44 4h-12q-64 -20 -108 -24h-52l-32 -4h-80l-12 -4h-84q-32 0 -56 4h-72l-20 4l-32 4l-28 4
q-24 12 -44 16l-40 16q-16 -16 -24 -32z" />
    <glyph glyph-name="braceleft" unicode="{" horiz-adv-x="420" 
 />
    <glyph glyph-name="bar" unicode="|" horiz-adv-x="201" 
 />
    <glyph glyph-name="braceright" unicode="}" horiz-adv-x="360" 
 />
    <glyph glyph-name="asciitilde" unicode="~" 
 />
    <glyph glyph-name="Adieresis" unicode="&#xc4;" horiz-adv-x="609" 
 />
    <glyph glyph-name="Aring" unicode="&#xc5;" horiz-adv-x="609" 
 />
    <glyph glyph-name="Ccedilla" unicode="&#xc7;" horiz-adv-x="729" 
 />
    <glyph glyph-name="Eacute" unicode="&#xc9;" horiz-adv-x="648" 
 />
    <glyph glyph-name="Ntilde" unicode="&#xd1;" horiz-adv-x="612" 
 />
    <glyph glyph-name="Odieresis" unicode="&#xd6;" horiz-adv-x="696" 
 />
    <glyph glyph-name="Udieresis" unicode="&#xdc;" horiz-adv-x="660" 
 />
    <glyph glyph-name="aacute" unicode="&#xe1;" horiz-adv-x="369" 
 />
    <glyph glyph-name="agrave" unicode="&#xe0;" horiz-adv-x="369" 
 />
    <glyph glyph-name="acircumflex" unicode="&#xe2;" horiz-adv-x="369" 
 />
    <glyph glyph-name="adieresis" unicode="&#xe4;" horiz-adv-x="369" 
 />
    <glyph glyph-name="atilde" unicode="&#xe3;" horiz-adv-x="369" 
 />
    <glyph glyph-name="aring" unicode="&#xe5;" horiz-adv-x="369" 
 />
    <glyph glyph-name="ccedilla" unicode="&#xe7;" horiz-adv-x="510" 
 />
    <glyph glyph-name="eacute" unicode="&#xe9;" horiz-adv-x="486" 
 />
    <glyph glyph-name="egrave" unicode="&#xe8;" horiz-adv-x="486" 
 />
    <glyph glyph-name="ecircumflex" unicode="&#xea;" horiz-adv-x="486" 
 />
    <glyph glyph-name="edieresis" unicode="&#xeb;" horiz-adv-x="486" 
 />
    <glyph glyph-name="iacute" unicode="&#xed;" horiz-adv-x="234" 
 />
    <glyph glyph-name="igrave" unicode="&#xec;" horiz-adv-x="234" 
 />
    <glyph glyph-name="icircumflex" unicode="&#xee;" horiz-adv-x="234" 
 />
    <glyph glyph-name="idieresis" unicode="&#xef;" horiz-adv-x="234" 
 />
    <glyph glyph-name="ntilde" unicode="&#xf1;" horiz-adv-x="384" 
 />
    <glyph glyph-name="oacute" unicode="&#xf3;" horiz-adv-x="366" 
 />
    <glyph glyph-name="ograve" unicode="&#xf2;" horiz-adv-x="366" 
 />
    <glyph glyph-name="ocircumflex" unicode="&#xf4;" horiz-adv-x="366" 
 />
    <glyph glyph-name="odieresis" unicode="&#xf6;" horiz-adv-x="366" 
 />
    <glyph glyph-name="otilde" unicode="&#xf5;" horiz-adv-x="366" 
 />
    <glyph glyph-name="uacute" unicode="&#xfa;" horiz-adv-x="342" 
 />
    <glyph glyph-name="ugrave" unicode="&#xf9;" horiz-adv-x="342" 
 />
    <glyph glyph-name="ucircumflex" unicode="&#xfb;" horiz-adv-x="342" 
 />
    <glyph glyph-name="udieresis" unicode="&#xfc;" horiz-adv-x="342" 
 />
    <glyph glyph-name="dagger" unicode="&#x2020;" horiz-adv-x="451" 
 />
    <glyph glyph-name="degree" unicode="&#xb0;" horiz-adv-x="285" 
 />
    <glyph glyph-name="cent" unicode="&#xa2;" 
 />
    <glyph glyph-name="sterling" unicode="&#xa3;" 
 />
    <glyph glyph-name="section" unicode="&#xa7;" horiz-adv-x="420" 
 />
    <glyph glyph-name="bullet" unicode="&#x2022;" horiz-adv-x="387" 
 />
    <glyph glyph-name="paragraph" unicode="&#xb6;" horiz-adv-x="450" 
 />
    <glyph glyph-name="germandbls" unicode="&#xdf;" horiz-adv-x="498" 
 />
    <glyph glyph-name="registered" unicode="&#xae;" horiz-adv-x="747" 
 />
    <glyph glyph-name="copyright" unicode="&#xa9;" horiz-adv-x="714" 
 />
    <glyph glyph-name="trademark" unicode="&#x2122;" horiz-adv-x="681" 
 />
    <glyph glyph-name="acute" unicode="&#xb4;" horiz-adv-x="462" 
 />
    <glyph glyph-name="dieresis" unicode="&#xa8;" horiz-adv-x="371" 
 />
    <glyph glyph-name="AE" unicode="&#xc6;" horiz-adv-x="819" 
 />
    <glyph glyph-name="Oslash" unicode="&#xd8;" horiz-adv-x="696" 
 />
    <glyph glyph-name="plusminus" unicode="&#xb1;" 
 />
    <glyph glyph-name="yen" unicode="&#xa5;" 
 />
    <glyph glyph-name="mu" unicode="&#xb5;" horiz-adv-x="420" 
 />
    <glyph glyph-name="mu" unicode="&#x3bc;" horiz-adv-x="420" 
 />
    <glyph glyph-name="ordfeminine" unicode="&#xaa;" horiz-adv-x="402" 
 />
    <glyph glyph-name="ordmasculine" unicode="&#xba;" horiz-adv-x="402" 
 />
    <glyph glyph-name="ae" unicode="&#xe6;" horiz-adv-x="747" 
 />
    <glyph glyph-name="oslash" unicode="&#xf8;" horiz-adv-x="366" 
 />
    <glyph glyph-name="questiondown" unicode="&#xbf;" horiz-adv-x="567" 
 />
    <glyph glyph-name="exclamdown" unicode="&#xa1;" horiz-adv-x="309" 
 />
    <glyph glyph-name="logicalnot" unicode="&#xac;" horiz-adv-x="1395" 
 />
    <glyph glyph-name="florin" unicode="&#x192;" horiz-adv-x="576" 
 />
    <glyph glyph-name="guillemotleft" unicode="&#xab;" horiz-adv-x="540" 
 />
    <glyph glyph-name="guillemotright" unicode="&#xbb;" horiz-adv-x="540" 
 />
    <glyph glyph-name="ellipsis" unicode="&#x2026;" horiz-adv-x="792" 
 />
    <glyph glyph-name="nonbreakingspace" unicode="&#xa0;" horiz-adv-x="498" 
 />
    <glyph glyph-name="Agrave" unicode="&#xc0;" horiz-adv-x="609" 
 />
    <glyph glyph-name="Atilde" unicode="&#xc3;" horiz-adv-x="609" 
 />
    <glyph glyph-name="Otilde" unicode="&#xd5;" horiz-adv-x="696" 
 />
    <glyph glyph-name="OE" unicode="&#x152;" horiz-adv-x="954" 
 />
    <glyph glyph-name="oe" unicode="&#x153;" horiz-adv-x="756" 
 />
    <glyph glyph-name="endash" unicode="&#x2013;" horiz-adv-x="684" 
 />
    <glyph glyph-name="emdash" unicode="&#x2014;" horiz-adv-x="894" 
 />
    <glyph glyph-name="quotedblleft" unicode="&#x201c;" horiz-adv-x="342" 
 />
    <glyph glyph-name="quotedblright" unicode="&#x201d;" horiz-adv-x="300" 
 />
    <glyph glyph-name="quoteleft" unicode="&#x2018;" horiz-adv-x="237" 
 />
    <glyph glyph-name="quoteright" unicode="&#x2019;" horiz-adv-x="240" 
 />
    <glyph glyph-name="divide" unicode="&#xf7;" 
 />
    <glyph glyph-name="ydieresis" unicode="&#xff;" horiz-adv-x="393" 
 />
    <glyph glyph-name="Ydieresis" unicode="&#x178;" horiz-adv-x="526" 
 />
    <glyph glyph-name="currency" unicode="&#xa4;" horiz-adv-x="420" 
 />
    <glyph glyph-name="guilsinglleft" unicode="&#x2039;" horiz-adv-x="321" 
 />
    <glyph glyph-name="guilsinglright" unicode="&#x203a;" horiz-adv-x="321" 
 />
    <glyph glyph-name="daggerdbl" unicode="&#x2021;" horiz-adv-x="336" 
 />
    <glyph glyph-name="periodcentered" unicode="&#xb7;" horiz-adv-x="207" 
 />
    <glyph glyph-name="periodcentered" unicode="&#x2219;" horiz-adv-x="207" 
 />
    <glyph glyph-name="quotesinglbase" unicode="&#x201a;" horiz-adv-x="234" 
 />
    <glyph glyph-name="quotedblbase" unicode="&#x201e;" horiz-adv-x="402" 
 />
    <glyph glyph-name="perthousand" unicode="&#x2030;" horiz-adv-x="729" 
 />
    <glyph glyph-name="Acircumflex" unicode="&#xc2;" horiz-adv-x="609" 
 />
    <glyph glyph-name="Ecircumflex" unicode="&#xca;" horiz-adv-x="648" 
 />
    <glyph glyph-name="Aacute" unicode="&#xc1;" horiz-adv-x="609" 
 />
    <glyph glyph-name="Edieresis" unicode="&#xcb;" horiz-adv-x="648" 
 />
    <glyph glyph-name="Egrave" unicode="&#xc8;" horiz-adv-x="648" 
 />
    <glyph glyph-name="Iacute" unicode="&#xcd;" horiz-adv-x="234" 
 />
    <glyph glyph-name="Icircumflex" unicode="&#xce;" horiz-adv-x="234" 
 />
    <glyph glyph-name="Idieresis" unicode="&#xcf;" horiz-adv-x="234" 
 />
    <glyph glyph-name="Igrave" unicode="&#xcc;" horiz-adv-x="234" 
 />
    <glyph glyph-name="Oacute" unicode="&#xd3;" horiz-adv-x="696" 
 />
    <glyph glyph-name="Ocircumflex" unicode="&#xd4;" horiz-adv-x="696" 
 />
    <glyph glyph-name="Ograve" unicode="&#xd2;" horiz-adv-x="696" 
 />
    <glyph glyph-name="Uacute" unicode="&#xda;" horiz-adv-x="660" 
 />
    <glyph glyph-name="Ucircumflex" unicode="&#xdb;" horiz-adv-x="660" 
 />
    <glyph glyph-name="Ugrave" unicode="&#xd9;" horiz-adv-x="660" 
 />
    <glyph glyph-name="circumflex" unicode="&#x2c6;" horiz-adv-x="360" 
 />
    <glyph glyph-name="tilde" unicode="&#x2dc;" horiz-adv-x="483" 
 />
    <glyph glyph-name="macron" unicode="&#xaf;" horiz-adv-x="360" 
 />
    <glyph glyph-name="macron" unicode="&#x2c9;" horiz-adv-x="360" 
 />
    <glyph glyph-name="cedilla" unicode="&#xb8;" horiz-adv-x="321" 
 />
    <glyph glyph-name="Scaron" unicode="&#x160;" horiz-adv-x="621" 
 />
    <glyph glyph-name="scaron" unicode="&#x161;" horiz-adv-x="342" 
 />
    <glyph glyph-name="brokenbar" unicode="&#xa6;" horiz-adv-x="201" 
 />
    <glyph glyph-name="Eth" unicode="&#xd0;" horiz-adv-x="663" 
 />
    <glyph glyph-name="eth" unicode="&#xf0;" horiz-adv-x="483" 
 />
    <glyph glyph-name="Yacute" unicode="&#xdd;" horiz-adv-x="526" 
 />
    <glyph glyph-name="yacute" unicode="&#xfd;" horiz-adv-x="393" 
 />
    <glyph glyph-name="Thorn" unicode="&#xde;" horiz-adv-x="576" 
 />
    <glyph glyph-name="thorn" unicode="&#xfe;" horiz-adv-x="348" 
 />
    <glyph glyph-name="minus" unicode="&#xad;" 
 />
    <glyph glyph-name="minus" unicode="&#x2212;" 
 />
    <glyph glyph-name="multiply" unicode="&#xd7;" 
 />
    <glyph glyph-name="onesuperior" unicode="&#xb9;" horiz-adv-x="300" 
 />
    <glyph glyph-name="twosuperior" unicode="&#xb2;" horiz-adv-x="300" 
 />
    <glyph glyph-name="threesuperior" unicode="&#xb3;" horiz-adv-x="300" 
 />
    <glyph glyph-name="onehalf" unicode="&#xbd;" horiz-adv-x="786" 
 />
    <glyph glyph-name="onequarter" unicode="&#xbc;" horiz-adv-x="786" 
 />
    <glyph glyph-name="threequarters" unicode="&#xbe;" horiz-adv-x="786" 
 />
    <glyph glyph-name="Lslash" unicode="&#x141;" horiz-adv-x="570" 
 />
    <glyph glyph-name="lslash" unicode="&#x142;" horiz-adv-x="213" 
 />
    <glyph glyph-name="Zcaron" unicode="&#x17d;" horiz-adv-x="690" 
 />
    <glyph glyph-name="zcaron" unicode="&#x17e;" horiz-adv-x="462" 
 />
    <glyph glyph-name="notequal" unicode="&#x2260;" 
 />
    <glyph glyph-name="infinity" unicode="&#x221e;" horiz-adv-x="669" 
 />
    <glyph glyph-name="lessequal" unicode="&#x2264;" horiz-adv-x="342" 
 />
    <glyph glyph-name="greaterequal" unicode="&#x2265;" horiz-adv-x="342" 
 />
    <glyph glyph-name="partialdiff" unicode="&#x2202;" horiz-adv-x="483" 
 />
    <glyph glyph-name="summation" unicode="&#x2211;" horiz-adv-x="1398" 
 />
    <glyph glyph-name="product" unicode="&#x220f;" horiz-adv-x="798" 
 />
    <glyph glyph-name="pi" unicode="&#x3c0;" horiz-adv-x="798" 
 />
    <glyph glyph-name="integral" unicode="&#x222b;" horiz-adv-x="1398" 
 />
    <glyph glyph-name="Omega" unicode="&#x3a9;" horiz-adv-x="1443" 
 />
    <glyph glyph-name="Omega" unicode="&#x2126;" horiz-adv-x="1443" 
 />
    <glyph glyph-name="radical" unicode="&#x221a;" horiz-adv-x="819" 
 />
    <glyph glyph-name="approxequal" unicode="&#x2248;" 
 />
    <glyph glyph-name="approxequal" unicode="&#x22f2;" 
 />
    <glyph glyph-name="Delta" unicode="&#x394;" horiz-adv-x="366" 
 />
    <glyph glyph-name="Delta" unicode="&#x2206;" horiz-adv-x="366" 
 />
    <glyph glyph-name="lozenge" unicode="&#x25ca;" horiz-adv-x="243" 
 />
    <glyph glyph-name="fraction" unicode="&#x2044;" horiz-adv-x="234" 
 />
    <glyph glyph-name="fi" unicode="&#xf001;" horiz-adv-x="525" 
 />
    <glyph glyph-name="fl" unicode="&#xf002;" horiz-adv-x="480" 
 />
    <glyph glyph-name="apple" unicode="&#xf000;" horiz-adv-x="588" 
 />
    <glyph glyph-name="dotlessi" unicode="&#x131;" horiz-adv-x="234" 
 />
    <glyph glyph-name="breve" unicode="&#x2d8;" horiz-adv-x="360" 
 />
    <glyph glyph-name="dotaccent" unicode="&#x2d9;" horiz-adv-x="183" 
 />
    <glyph glyph-name="ring" unicode="&#x2da;" horiz-adv-x="360" 
 />
    <glyph glyph-name="hungarumlaut" unicode="&#x2dd;" horiz-adv-x="468" 
 />
    <glyph glyph-name="ogonek" unicode="&#x2db;" horiz-adv-x="270" 
 />
    <glyph glyph-name="caron" unicode="&#x2c7;" horiz-adv-x="360" 
 />
    </font>
</defs>
</svg>
